<?xml version="1.0" encoding="utf-8"?>
<svg id="master-artboard" viewBox="0 0 400 400" version="1.1" xmlns="http://www.w3.org/2000/svg" x="0px" y="0px" enable-background="new 0 0 1400 980" width="400px" height="400px"><rect id="ee-background" x="0" y="0" width="400" height="400" style="fill: white; fill-opacity: 0; pointer-events: none;"/>



<path fill="#F6C49F" d="M1100.3,267.6v10.9l39.2,49.4c41.9-48.4,41.9-48.4,41.9-48.4l0.3-12.3c0,0-26.6,19.8-38.9,23.2&#10;&#9;&#9;C1130.6,293.9,1100.3,267.6,1100.3,267.6z" transform="matrix(1, 0, 0, 1, -938.2904052734375, -63.53776168823242)"/><path fill="#AE8D6E" d="M1140.1,284.5c-10,0-22.4-7.5-35.8-17.8c-1.3-1-2.7-2.1-4-3.1v4.1c0,0,30.3,26.2,42.6,22.8&#10;&#9;&#9;c12.3-3.4,38.9-23.2,38.9-23.2v-5.1c-2,1.5-4.1,3.1-6.2,4.6C1162.8,275.9,1147.8,284.5,1140.1,284.5z" transform="matrix(1, 0, 0, 1, -938.2904052734375, -63.53776168823242)"/><path d="M 1173.4000244140625 364 L 1165.300048828125 457.8999938964844 L 1161.0999755859375 457.8999938964844 L 1149.5999755859375 357.79998779296875 L 1156 344.6000061035156 Z" fill="#FCF9CE" transform="matrix(1, 0, 0, 1, -938.2904052734375, -63.53776168823242)"/><path d="M 1132 359.3999938964844 L 1119 457.8999938964844 L 1114.0999755859375 457.8999938964844 L 1106.0999755859375 363.8999938964844 L 1124.0999755859375 344.6000061035156 Z" fill="#FCF9CE" transform="matrix(1, 0, 0, 1, -938.2904052734375, -63.53776168823242)"/><path fill="#86CEBC" d="M1106.1,363.9l8,94H974.1c0,0,3.8-97.7,19.9-111.5c12.3-10.6,66.2-39.1,91-52c6.1-3.2,10.5-5.4,11.9-6.2&#10;&#9;&#9;l0,0c0.4-0.2,0.5-0.3,0.5-0.3v0l8.4,76.1L1106.1,363.9z" transform="matrix(1, 0, 0, 1, -938.2904052734375, -63.53776168823242)"/><path d="M 1119 457.8999938964844 L 1132 359.3999938964844 L 1124.0999755859375 344.6000061035156 L 1140.4000244140625 327.1000061035156 L 1156 344.6000061035156 L 1149.5999755859375 357.79998779296875 L 1161.0999755859375 457.8999938964844 Z" fill="#86CEBC" transform="matrix(1, 0, 0, 1, -938.2904052734375, -63.53776168823242)"/><path fill="#86CEBC" d="M1325.1,457.9h-159.8l8-93.8l8.4-74.6l1.8,0.8c1.8,0.8,4.8,2.1,8.8,3.8l1.2,0.5&#10;&#9;&#9;c23.8,10.6,76.6,34.8,90.2,47.2c17.6,16.1,32.2,63.8,36.8,90C1325.1,457.9,1325.1,457.9,1325.1,457.9z" transform="matrix(1, 0, 0, 1, -938.2904052734375, -63.53776168823242)"/><path d="M 1181.800048828125 275.1000061035156 L 1181.800048828125 289.3999938964844 L 1173.4000244140625 364 L 1156 344.6000061035156 L 1140.4000244140625 327.1000061035156 Z" fill="#A37474" transform="matrix(1, 0, 0, 1, -938.2904052734375, -63.53776168823242)"/><path d="M 1140.4000244140625 327.1000061035156 L 1124.0999755859375 344.6000061035156 L 1106.0999755859375 363.8999938964844 L 1105.9000244140625 364 L 1097.5 287.8999938964844 L 1097.5 287.79998779296875 L 1100.5999755859375 275.1000061035156 Z" fill="#A37474" transform="matrix(1, 0, 0, 1, -938.2904052734375, -63.53776168823242)"/><path d="M 1119 457.8999938964844 L 1132 359.3999938964844 L 1124.0999755859375 344.6000061035156 L 1140.4000244140625 327.1000061035156 L 1156 344.6000061035156 L 1149.5999755859375 357.79998779296875 L 1161.0999755859375 457.8999938964844 Z" fill="#723138" transform="matrix(1, 0, 0, 1, -938.2904052734375, -63.53776168823242)"/><path fill="#F6C49F" d="M1073.9,215.9c-0.5-0.3-8.6-5.3-12.8-13.7c0,0,0,0,0,0c-1.4-2.9-2.4-6.2-2.4-9.8c0-0.5,0-0.9,0-1.3&#10;&#9;&#9;&#9;c0,0,0,0,0,0c0.4-6,3.6-9.2,6.9-11l0.2,0.3C1067.6,194.4,1070.1,207.4,1073.9,215.9z" transform="matrix(1, 0, 0, 1, -938.2904052734375, -63.53776168823242)"/><path fill="#F6C49F" d="M1217.9,203.2L1217.9,203.2c-0.8,1.4-1.7,2.6-2.5,3.8c0.5-7,0.9-14.3,0.5-22.5l1.6-2.1&#10;&#9;&#9;&#9;c2.2,2,4,4.8,4.3,8.5C1222.1,194.9,1220.2,199.4,1217.9,203.2z" transform="matrix(1, 0, 0, 1, -938.2904052734375, -63.53776168823242)"/><path fill="none" d="M1073.9,215.9c3.4,7.5,3.9,15.9,4.1,23.9C1072.5,227.5,1073.9,215.9,1073.9,215.9z" transform="matrix(1, 0, 0, 1, -938.2904052734375, -63.53776168823242)"/><path fill="none" d="M1169.2,247.6v16.8c0,0-20.7,8.4-32.3,9.7c-11.6,1.3-22-9.7-22-9.7c-4-3.5,2.6-22.6,7.1-22.6&#10;&#9;&#9;&#9;c4.5,0,15.5-4.5,20-5.2C1146.6,236,1169.2,247.6,1169.2,247.6z" transform="matrix(1, 0, 0, 1, -938.2904052734375, -63.53776168823242)"/><path fill="none" d="M1206.1,197.1c0,0,1.9,24-10.4,39.5c-12.3,15.5-17.5,19.4-17.5,19.4s-0.6-16.2-7.1-22&#10;&#9;&#9;&#9;c-6.5-5.8-25.2-10.3-25.2-10.3l-5.3,3.9l-3.2-4.5c0,0-24.6,9.1-27.2,12.3c-2.6,3.2-3.2,20.7-3.2,20.7s-15.5-8.4-20.7-20.7&#10;&#9;&#9;&#9;c-5.2-12.3-10.5-38.2-10.5-38.2s7.3-73.6,27.4-62.6c0,0,6.5,5.2,23.9,5.2c17.5,0,38.8-18.8,47.2-18.8c8.4,0,23.9,25.2,21.3,36.2&#10;&#9;&#9;&#9;c-2.5,10.7,11.1,23.3,11.8,23.9c0,0,0,0,0,0l0,0.1C1207.7,189.2,1206.1,197.1,1206.1,197.1z" transform="matrix(1, 0, 0, 1, -938.2904052734375, -63.53776168823242)"/><path fill="none" d="M1207.6,181c-0.7-0.6-14.3-13.2-11.8-23.9c2.6-11-12.9-36.2-21.3-36.2c-8.4,0-29.7,18.8-47.2,18.8&#10;&#9;&#9;&#9;c-17.5,0-23.9-5.2-23.9-5.2c-20-11-27.4,62.6-27.4,62.6s-1.9-19.1,0-35.1v0c0-0.3,0.1-0.6,0.2-1c0.1-0.6,0.2-1.3,0.3-2&#10;&#9;&#9;&#9;c0,0,0,0,0-0.1c2.8-14.3,12.7-23.7,19.3-30.3c7-7,2.6-15.6,23.7-23.7c100.2-38.3,72.8,56.1,82.4,60.5&#10;&#9;&#9;&#9;C1206.2,167.6,1207.5,174.3,1207.6,181z" transform="matrix(1, 0, 0, 1, -938.2904052734375, -63.53776168823242)"/><path fill="#625144" d="M1171.2,76.3c-31-10.3-42.7-12.9-68.5-5.8c-25.9,7.1-40.1,30.9-40.1,47.5c0,10.5,0.4,38,3.4,62.5&#10;&#9;&#9;&#9;c1.7,14,4.2,27,8,35.5l0,0c3.4,7.5,3.9,15.9,4.1,23.9c2.4,5.3,6.1,10.7,11.8,15.5c4.7,4,9.4,7.8,14,11.3&#10;&#9;&#9;&#9;c13.7,10.5,26.5,18.2,36.8,18.2c7.9,0,23.2-8.8,36.3-18.1c9.7-6.9,18.1-14.1,21.3-18.3c7.6-9.9,12.1-35.6,12.1-35.6s2.4-2.4,5-5.9&#10;&#9;&#9;&#9;c0.5-7,0.9-14.3,0.5-22.5c-0.2-4.6-0.6-9.6-1.4-15.1c0,0,0-54.3,3.9-55.6C1222.2,112.5,1202.2,86.6,1171.2,76.3z" transform="matrix(1, 0, 0, 1, -938.2904052734375, -63.53776168823242)"/><path fill="#F6C49F" d="M1207.6,181L1207.6,181l0,0.2l-1.4,15.9c0,0,1.9,24-10.4,39.5c-12.3,15.5-17.5,19.4-17.5,19.4&#10;&#9;&#9;&#9;s-0.6-16.2-7.1-22c-6.5-5.8-25.2-10.3-25.2-10.3l-5.3,3.9l-3.2-4.5c0,0-24.6,9.1-27.2,12.3c-2.6,3.2-3.2,20.7-3.2,20.7&#10;&#9;&#9;&#9;s-15.5-8.4-20.7-20.7c-5.2-12.3-10.5-38.2-10.5-38.2s7.3-73.6,27.4-62.6c0,0,6.5,5.2,23.9,5.2c17.5,0,38.8-18.8,47.2-18.8&#10;&#9;&#9;&#9;c8.4,0,23.9,25.2,21.3,36.2C1193.2,167.8,1206.9,180.4,1207.6,181C1207.6,181,1207.6,181,1207.6,181z" transform="matrix(1, 0, 0, 1, -938.2904052734375, -63.53776168823242)"/><path fill="#F6C49F" d="M1169.2,247.6v16.8c0,0-20.7,8.4-32.3,9.7c-11.6,1.3-22-9.7-22-9.7c-4-3.5,2.6-22.6,7.1-22.6&#10;&#9;&#9;&#9;c4.5,0,15.5-4.5,20-5.2C1146.6,236,1169.2,247.6,1169.2,247.6z" transform="matrix(1, 0, 0, 1, -938.2904052734375, -63.53776168823242)"/><path d="M 1221.800048828125 372.8999938964844 L 1187.199951171875 457.8999938964844 L 1165.300048828125 457.8999938964844 L 1173.4000244140625 364 L 1181.800048828125 289.3999938964844 L 1183.5999755859375 290.20001220703125 L 1192.300048828125 294 L 1193.5999755859375 294.5 L 1218.800048828125 332.70001220703125 L 1193.5999755859375 364 Z" fill="#5F5E5B" transform="matrix(1, 0, 0, 1, -938.2904052734375, -63.53776168823242)"/><path d="M 1114.0999755859375 458.1000061035156 L 1092.199951171875 458.1000061035156 L 1092.199951171875 457.8999938964844 L 1057.5999755859375 372.20001220703125 L 1085.800048828125 363.29998779296875 L 1060.5 331.70001220703125 L 1085 294.29998779296875 L 1085.800048828125 293 L 1096.9000244140625 288.1000061035156 L 1097 288.1000061035156 L 1097.5 287.8999938964844 L 1097.5999755859375 287.79998779296875 L 1106 363.29998779296875 L 1106.0999755859375 363.8999938964844 L 1114.0999755859375 457.8999938964844 Z" fill="#5F5E5B" transform="matrix(1, 0, 0, 1, -938.2904052734375, -63.53776168823242)"/>


</svg>